<mxfile host="app.diagrams.net" modified="2024-03-06T22:52:59.658Z" agent="Mozilla/5.0 (Windows NT 10.0; Win64; x64) AppleWebKit/537.36 (KHTML, like Gecko) Chrome/122.0.0.0 Safari/537.36" etag="pyVPD2MVRxfKZ3ymBaNG" version="24.0.1" type="device">
  <diagram id="6a731a19-8d31-9384-78a2-239565b7b9f0" name="Page-1">
    <mxGraphModel dx="1720" dy="753" grid="1" gridSize="10" guides="1" tooltips="1" connect="1" arrows="1" fold="1" page="1" pageScale="1" pageWidth="827" pageHeight="1169" background="none" math="0" shadow="0">
      <root>
        <mxCell id="0" />
        <mxCell id="1" parent="0" />
        <mxCell id="PHXcHsW02hSgZFk6ordv-117" value="&lt;b&gt;PHASE II&lt;/b&gt;" style="ellipse;shape=cloud;whiteSpace=wrap;html=1;" vertex="1" parent="1">
          <mxGeometry x="610" y="150" width="210" height="450" as="geometry" />
        </mxCell>
        <mxCell id="PHXcHsW02hSgZFk6ordv-60" value="" style="edgeStyle=orthogonalEdgeStyle;rounded=0;orthogonalLoop=1;jettySize=auto;html=1;" edge="1" parent="1" source="PHXcHsW02hSgZFk6ordv-56" target="PHXcHsW02hSgZFk6ordv-59">
          <mxGeometry relative="1" as="geometry" />
        </mxCell>
        <mxCell id="PHXcHsW02hSgZFk6ordv-56" value="RESTROOM CONTROLLER" style="strokeWidth=2;html=1;shape=mxgraph.flowchart.start_1;whiteSpace=wrap;" vertex="1" parent="1">
          <mxGeometry x="365" y="10" width="100" height="60" as="geometry" />
        </mxCell>
        <mxCell id="PHXcHsW02hSgZFk6ordv-62" value="" style="edgeStyle=orthogonalEdgeStyle;rounded=0;orthogonalLoop=1;jettySize=auto;html=1;exitX=0.25;exitY=1;exitDx=0;exitDy=0;" edge="1" parent="1" source="PHXcHsW02hSgZFk6ordv-59" target="PHXcHsW02hSgZFk6ordv-61">
          <mxGeometry relative="1" as="geometry" />
        </mxCell>
        <mxCell id="PHXcHsW02hSgZFk6ordv-64" value="" style="edgeStyle=orthogonalEdgeStyle;rounded=0;orthogonalLoop=1;jettySize=auto;html=1;" edge="1" parent="1" source="PHXcHsW02hSgZFk6ordv-59" target="PHXcHsW02hSgZFk6ordv-63">
          <mxGeometry relative="1" as="geometry" />
        </mxCell>
        <mxCell id="PHXcHsW02hSgZFk6ordv-66" value="" style="edgeStyle=orthogonalEdgeStyle;rounded=0;orthogonalLoop=1;jettySize=auto;html=1;exitX=0.75;exitY=1;exitDx=0;exitDy=0;" edge="1" parent="1" source="PHXcHsW02hSgZFk6ordv-59" target="PHXcHsW02hSgZFk6ordv-65">
          <mxGeometry relative="1" as="geometry" />
        </mxCell>
        <mxCell id="PHXcHsW02hSgZFk6ordv-114" value="" style="edgeStyle=orthogonalEdgeStyle;rounded=0;orthogonalLoop=1;jettySize=auto;html=1;" edge="1" parent="1" target="PHXcHsW02hSgZFk6ordv-113">
          <mxGeometry relative="1" as="geometry">
            <mxPoint x="480" y="110" as="sourcePoint" />
          </mxGeometry>
        </mxCell>
        <mxCell id="PHXcHsW02hSgZFk6ordv-120" style="edgeStyle=orthogonalEdgeStyle;rounded=0;orthogonalLoop=1;jettySize=auto;html=1;exitX=1;exitY=0.75;exitDx=0;exitDy=0;" edge="1" parent="1" source="PHXcHsW02hSgZFk6ordv-59" target="PHXcHsW02hSgZFk6ordv-111">
          <mxGeometry relative="1" as="geometry" />
        </mxCell>
        <mxCell id="PHXcHsW02hSgZFk6ordv-59" value="Display Room Condition" style="whiteSpace=wrap;html=1;strokeWidth=2;" vertex="1" parent="1">
          <mxGeometry x="355" y="100" width="120" height="60" as="geometry" />
        </mxCell>
        <mxCell id="PHXcHsW02hSgZFk6ordv-68" value="" style="edgeStyle=orthogonalEdgeStyle;rounded=0;orthogonalLoop=1;jettySize=auto;html=1;" edge="1" parent="1" source="PHXcHsW02hSgZFk6ordv-61" target="PHXcHsW02hSgZFk6ordv-67">
          <mxGeometry relative="1" as="geometry">
            <Array as="points">
              <mxPoint x="225" y="400" />
              <mxPoint x="425" y="400" />
            </Array>
          </mxGeometry>
        </mxCell>
        <mxCell id="PHXcHsW02hSgZFk6ordv-61" value="Button 1&lt;div&gt;(pre-defined settings)&lt;/div&gt;" style="shape=parallelogram;perimeter=parallelogramPerimeter;whiteSpace=wrap;html=1;fixedSize=1;strokeWidth=2;" vertex="1" parent="1">
          <mxGeometry x="160" y="240" width="150" height="60" as="geometry" />
        </mxCell>
        <mxCell id="PHXcHsW02hSgZFk6ordv-69" value="" style="edgeStyle=orthogonalEdgeStyle;rounded=0;orthogonalLoop=1;jettySize=auto;html=1;" edge="1" parent="1" source="PHXcHsW02hSgZFk6ordv-63" target="PHXcHsW02hSgZFk6ordv-67">
          <mxGeometry relative="1" as="geometry" />
        </mxCell>
        <mxCell id="PHXcHsW02hSgZFk6ordv-63" value="Button 2&lt;div&gt;(pre-defined settings)&lt;/div&gt;" style="shape=parallelogram;perimeter=parallelogramPerimeter;whiteSpace=wrap;html=1;fixedSize=1;strokeWidth=2;" vertex="1" parent="1">
          <mxGeometry x="340" y="240" width="150" height="60" as="geometry" />
        </mxCell>
        <mxCell id="PHXcHsW02hSgZFk6ordv-118" style="edgeStyle=orthogonalEdgeStyle;rounded=0;orthogonalLoop=1;jettySize=auto;html=1;entryX=1;entryY=0.25;entryDx=0;entryDy=0;" edge="1" parent="1" source="PHXcHsW02hSgZFk6ordv-65" target="PHXcHsW02hSgZFk6ordv-67">
          <mxGeometry relative="1" as="geometry">
            <Array as="points">
              <mxPoint x="570" y="375" />
            </Array>
          </mxGeometry>
        </mxCell>
        <mxCell id="PHXcHsW02hSgZFk6ordv-65" value="Button 3&lt;div&gt;(temp manual overide)&lt;/div&gt;" style="shape=parallelogram;perimeter=parallelogramPerimeter;whiteSpace=wrap;html=1;fixedSize=1;strokeWidth=2;" vertex="1" parent="1">
          <mxGeometry x="520" y="240" width="120" height="60" as="geometry" />
        </mxCell>
        <mxCell id="PHXcHsW02hSgZFk6ordv-75" value="" style="edgeStyle=orthogonalEdgeStyle;rounded=0;orthogonalLoop=1;jettySize=auto;html=1;" edge="1" parent="1" source="PHXcHsW02hSgZFk6ordv-67" target="PHXcHsW02hSgZFk6ordv-74">
          <mxGeometry relative="1" as="geometry">
            <Array as="points">
              <mxPoint x="390" y="450" />
              <mxPoint x="360" y="450" />
            </Array>
          </mxGeometry>
        </mxCell>
        <mxCell id="PHXcHsW02hSgZFk6ordv-77" value="" style="edgeStyle=orthogonalEdgeStyle;rounded=0;orthogonalLoop=1;jettySize=auto;html=1;" edge="1" parent="1" source="PHXcHsW02hSgZFk6ordv-67" target="PHXcHsW02hSgZFk6ordv-76">
          <mxGeometry relative="1" as="geometry">
            <Array as="points">
              <mxPoint x="440" y="450" />
              <mxPoint x="520" y="450" />
            </Array>
          </mxGeometry>
        </mxCell>
        <mxCell id="PHXcHsW02hSgZFk6ordv-67" value="Display&lt;div&gt;user selected/overide&lt;/div&gt;&lt;div&gt;&amp;nbsp;(OLED)&lt;/div&gt;" style="whiteSpace=wrap;html=1;strokeWidth=2;" vertex="1" parent="1">
          <mxGeometry x="355" y="360" width="120" height="60" as="geometry" />
        </mxCell>
        <mxCell id="PHXcHsW02hSgZFk6ordv-79" value="" style="edgeStyle=orthogonalEdgeStyle;rounded=0;orthogonalLoop=1;jettySize=auto;html=1;" edge="1" parent="1" source="PHXcHsW02hSgZFk6ordv-74" target="PHXcHsW02hSgZFk6ordv-78">
          <mxGeometry relative="1" as="geometry" />
        </mxCell>
        <mxCell id="PHXcHsW02hSgZFk6ordv-74" value="Read Temp" style="shape=parallelogram;perimeter=parallelogramPerimeter;whiteSpace=wrap;html=1;fixedSize=1;strokeWidth=2;" vertex="1" parent="1">
          <mxGeometry x="300" y="460" width="120" height="60" as="geometry" />
        </mxCell>
        <mxCell id="PHXcHsW02hSgZFk6ordv-93" value="" style="edgeStyle=orthogonalEdgeStyle;rounded=0;orthogonalLoop=1;jettySize=auto;html=1;" edge="1" parent="1" source="PHXcHsW02hSgZFk6ordv-76" target="PHXcHsW02hSgZFk6ordv-92">
          <mxGeometry relative="1" as="geometry" />
        </mxCell>
        <mxCell id="PHXcHsW02hSgZFk6ordv-76" value="Read Humidity" style="shape=parallelogram;perimeter=parallelogramPerimeter;whiteSpace=wrap;html=1;fixedSize=1;strokeWidth=2;" vertex="1" parent="1">
          <mxGeometry x="460" y="460" width="120" height="60" as="geometry" />
        </mxCell>
        <mxCell id="PHXcHsW02hSgZFk6ordv-81" value="" style="edgeStyle=orthogonalEdgeStyle;rounded=0;orthogonalLoop=1;jettySize=auto;html=1;" edge="1" parent="1" source="PHXcHsW02hSgZFk6ordv-78" target="PHXcHsW02hSgZFk6ordv-80">
          <mxGeometry relative="1" as="geometry" />
        </mxCell>
        <mxCell id="PHXcHsW02hSgZFk6ordv-82" value="YES" style="edgeLabel;html=1;align=center;verticalAlign=middle;resizable=0;points=[];" vertex="1" connectable="0" parent="PHXcHsW02hSgZFk6ordv-81">
          <mxGeometry x="-0.0756" relative="1" as="geometry">
            <mxPoint as="offset" />
          </mxGeometry>
        </mxCell>
        <mxCell id="PHXcHsW02hSgZFk6ordv-84" value="" style="edgeStyle=orthogonalEdgeStyle;rounded=0;orthogonalLoop=1;jettySize=auto;html=1;" edge="1" parent="1" source="PHXcHsW02hSgZFk6ordv-78" target="PHXcHsW02hSgZFk6ordv-83">
          <mxGeometry relative="1" as="geometry" />
        </mxCell>
        <mxCell id="PHXcHsW02hSgZFk6ordv-97" value="NO" style="edgeLabel;html=1;align=center;verticalAlign=middle;resizable=0;points=[];" vertex="1" connectable="0" parent="PHXcHsW02hSgZFk6ordv-84">
          <mxGeometry x="0.0333" y="-2" relative="1" as="geometry">
            <mxPoint as="offset" />
          </mxGeometry>
        </mxCell>
        <mxCell id="PHXcHsW02hSgZFk6ordv-78" value="IS temp met?" style="rhombus;whiteSpace=wrap;html=1;strokeWidth=2;" vertex="1" parent="1">
          <mxGeometry x="320" y="570" width="80" height="80" as="geometry" />
        </mxCell>
        <mxCell id="PHXcHsW02hSgZFk6ordv-99" value="" style="edgeStyle=orthogonalEdgeStyle;rounded=0;orthogonalLoop=1;jettySize=auto;html=1;" edge="1" parent="1" source="PHXcHsW02hSgZFk6ordv-80" target="PHXcHsW02hSgZFk6ordv-98">
          <mxGeometry relative="1" as="geometry" />
        </mxCell>
        <mxCell id="PHXcHsW02hSgZFk6ordv-80" value="Turn off HTR/AC" style="whiteSpace=wrap;html=1;strokeWidth=2;" vertex="1" parent="1">
          <mxGeometry x="270" y="767" width="120" height="60" as="geometry" />
        </mxCell>
        <mxCell id="PHXcHsW02hSgZFk6ordv-86" value="" style="edgeStyle=orthogonalEdgeStyle;rounded=0;orthogonalLoop=1;jettySize=auto;html=1;" edge="1" parent="1" source="PHXcHsW02hSgZFk6ordv-83" target="PHXcHsW02hSgZFk6ordv-85">
          <mxGeometry relative="1" as="geometry" />
        </mxCell>
        <mxCell id="PHXcHsW02hSgZFk6ordv-83" value="Turn ON HTR/AC&lt;div&gt;(Wemo1)&lt;/div&gt;" style="whiteSpace=wrap;html=1;strokeWidth=2;" vertex="1" parent="1">
          <mxGeometry x="160" y="620" width="120" height="60" as="geometry" />
        </mxCell>
        <mxCell id="PHXcHsW02hSgZFk6ordv-87" value="" style="edgeStyle=orthogonalEdgeStyle;rounded=0;orthogonalLoop=1;jettySize=auto;html=1;" edge="1" parent="1" source="PHXcHsW02hSgZFk6ordv-85" target="PHXcHsW02hSgZFk6ordv-74">
          <mxGeometry relative="1" as="geometry" />
        </mxCell>
        <mxCell id="PHXcHsW02hSgZFk6ordv-85" value="Turn on HUE 1&lt;div&gt;dim&lt;/div&gt;" style="whiteSpace=wrap;html=1;strokeWidth=2;" vertex="1" parent="1">
          <mxGeometry x="130" y="500" width="120" height="60" as="geometry" />
        </mxCell>
        <mxCell id="PHXcHsW02hSgZFk6ordv-95" value="" style="edgeStyle=orthogonalEdgeStyle;rounded=0;orthogonalLoop=1;jettySize=auto;html=1;" edge="1" parent="1" source="PHXcHsW02hSgZFk6ordv-92" target="PHXcHsW02hSgZFk6ordv-94">
          <mxGeometry relative="1" as="geometry" />
        </mxCell>
        <mxCell id="PHXcHsW02hSgZFk6ordv-96" value="NO" style="edgeLabel;html=1;align=center;verticalAlign=middle;resizable=0;points=[];" vertex="1" connectable="0" parent="PHXcHsW02hSgZFk6ordv-95">
          <mxGeometry x="-0.0667" y="-3" relative="1" as="geometry">
            <mxPoint as="offset" />
          </mxGeometry>
        </mxCell>
        <mxCell id="PHXcHsW02hSgZFk6ordv-101" value="" style="edgeStyle=orthogonalEdgeStyle;rounded=0;orthogonalLoop=1;jettySize=auto;html=1;" edge="1" parent="1" source="PHXcHsW02hSgZFk6ordv-92" target="PHXcHsW02hSgZFk6ordv-100">
          <mxGeometry relative="1" as="geometry" />
        </mxCell>
        <mxCell id="PHXcHsW02hSgZFk6ordv-92" value="IS humidity met?" style="rhombus;whiteSpace=wrap;html=1;strokeWidth=2;" vertex="1" parent="1">
          <mxGeometry x="530" y="570" width="80" height="80" as="geometry" />
        </mxCell>
        <mxCell id="PHXcHsW02hSgZFk6ordv-94" value="Turn on Dehumidifier&lt;div&gt;(wemo 2)&lt;/div&gt;" style="whiteSpace=wrap;html=1;strokeWidth=2;" vertex="1" parent="1">
          <mxGeometry x="390" y="670" width="120" height="60" as="geometry" />
        </mxCell>
        <mxCell id="PHXcHsW02hSgZFk6ordv-106" style="edgeStyle=orthogonalEdgeStyle;rounded=0;orthogonalLoop=1;jettySize=auto;html=1;" edge="1" parent="1" source="PHXcHsW02hSgZFk6ordv-98">
          <mxGeometry relative="1" as="geometry">
            <mxPoint x="430" y="1090" as="targetPoint" />
          </mxGeometry>
        </mxCell>
        <mxCell id="PHXcHsW02hSgZFk6ordv-98" value="&lt;div&gt;&lt;br&gt;&lt;/div&gt;&lt;div&gt;&lt;div&gt;Change HUE1&lt;/div&gt;&lt;div&gt;&amp;nbsp;full brightness&lt;/div&gt;&lt;/div&gt;&lt;div&gt;color red/blue&lt;/div&gt;" style="whiteSpace=wrap;html=1;strokeWidth=2;" vertex="1" parent="1">
          <mxGeometry x="280" y="890" width="120" height="60" as="geometry" />
        </mxCell>
        <mxCell id="PHXcHsW02hSgZFk6ordv-105" value="" style="edgeStyle=orthogonalEdgeStyle;rounded=0;orthogonalLoop=1;jettySize=auto;html=1;" edge="1" parent="1" source="PHXcHsW02hSgZFk6ordv-100">
          <mxGeometry relative="1" as="geometry">
            <mxPoint x="430" y="1090" as="targetPoint" />
          </mxGeometry>
        </mxCell>
        <mxCell id="PHXcHsW02hSgZFk6ordv-100" value="Turn off dehumidifier" style="whiteSpace=wrap;html=1;strokeWidth=2;" vertex="1" parent="1">
          <mxGeometry x="510" y="760" width="120" height="60" as="geometry" />
        </mxCell>
        <mxCell id="PHXcHsW02hSgZFk6ordv-107" value="&lt;div&gt;COMPLETE&lt;/div&gt;(FLASHING HUE GREEN)" style="whiteSpace=wrap;html=1;strokeWidth=2;" vertex="1" parent="1">
          <mxGeometry x="365" y="1000" width="180" height="80" as="geometry" />
        </mxCell>
        <mxCell id="PHXcHsW02hSgZFk6ordv-111" value="Water Temp&lt;div&gt;Sensor&lt;/div&gt;" style="shape=parallelogram;perimeter=parallelogramPerimeter;whiteSpace=wrap;html=1;fixedSize=1;strokeWidth=2;" vertex="1" parent="1">
          <mxGeometry x="630" y="330" width="100" height="60" as="geometry" />
        </mxCell>
        <mxCell id="PHXcHsW02hSgZFk6ordv-113" value="Water Level&lt;div&gt;Sensor&lt;/div&gt;" style="shape=parallelogram;perimeter=parallelogramPerimeter;whiteSpace=wrap;html=1;fixedSize=1;strokeWidth=2;" vertex="1" parent="1">
          <mxGeometry x="730" y="330" width="90" height="60" as="geometry" />
        </mxCell>
      </root>
    </mxGraphModel>
  </diagram>
</mxfile>
